<svg width="134" height="152" viewBox="0 0 134 152" fill="none" xmlns="http://www.w3.org/2000/svg">
<path d="M42 6C33.3567 10.9902 25.7809 17.634 19.7051 25.5521C13.6294 33.4701 9.17277 42.5073 6.58964 52.1477C4.00651 61.7881 3.34748 71.8428 4.65019 81.7379C5.95291 91.633 9.19184 101.175 14.1821 109.818C19.1723 118.461 25.8161 126.037 33.7341 132.113C41.6522 138.189 50.6894 142.645 60.3298 145.228C69.9701 147.811 80.0249 148.47 89.92 147.168C99.8151 145.865 109.357 142.626 118 137.636L105.262 115.249C98.2136 119.454 90.0291 121.979 81.2443 122.253C53.6435 123.116 30.5693 101.441 29.7065 73.8398C29.1052 54.6058 39.449 37.57 55.1157 28.7171L42 6Z" fill="white"/>
<path d="M129.658 70.7154C128.795 43.1146 105.721 21.4392 78.1199 22.302C69.7531 22.5635 61.9308 24.8661 55.1157 28.7171C39.449 37.57 29.1052 54.6058 29.7065 73.8398C30.5693 101.441 53.6435 123.116 81.2443 122.253C90.0291 121.979 98.2136 119.454 105.262 115.249L124.778 114.639L124.168 95.1239C127.924 87.8264 129.932 79.5002 129.658 70.7154Z" fill="white"/>
<path d="M42 6L45.4641 4L43.4641 0.535899L40 2.5359L42 6ZM118 137.636L120 141.1L123.442 139.112L121.477 135.658L118 137.636ZM78.1199 22.302L78.2448 26.3001L78.1199 22.302ZM129.658 70.7154L133.656 70.5904L129.658 70.7154ZM29.7065 73.8398L25.7084 73.9648L29.7065 73.8398ZM81.2443 122.253L81.1193 118.255L81.2443 122.253ZM105.262 115.249L105.137 111.251L104.102 111.284L103.213 111.814L105.262 115.249ZM124.778 114.639L124.903 118.637L128.901 118.512L128.776 114.514L124.778 114.639ZM124.168 95.1239L120.611 93.2933L120.137 94.2139L120.17 95.2488L124.168 95.1239ZM55.1157 28.7171L57.0836 32.1996L55.1157 28.7171ZM40 2.5359C30.9018 7.78877 22.9272 14.7822 16.5317 23.117L22.8786 27.9871C28.6345 20.4858 35.8116 14.1917 44 9.4641L40 2.5359ZM16.5317 23.117C10.1362 31.4518 5.44502 40.9646 2.72594 51.1124L10.4533 53.183C12.9005 44.05 17.1226 35.4884 22.8786 27.9871L16.5317 23.117ZM2.72594 51.1124C0.0068481 61.2602 -0.686862 71.8442 0.684415 82.26L8.61597 81.2158C7.38182 71.8415 8.00616 62.316 10.4533 53.183L2.72594 51.1124ZM0.684415 82.26C2.05569 92.6759 5.4651 102.72 10.718 111.818L17.6462 107.818C12.9186 99.6295 9.85012 90.5901 8.61597 81.2158L0.684415 82.26ZM10.718 111.818C15.9708 120.916 22.9643 128.891 31.2991 135.286L36.1692 128.939C28.6679 123.183 22.3738 116.006 17.6462 107.818L10.718 111.818ZM31.2991 135.286C39.6339 141.682 49.1467 146.373 59.2945 149.092L61.365 141.365C52.232 138.917 43.6705 134.695 36.1692 128.939L31.2991 135.286ZM59.2945 149.092C69.4423 151.811 80.0262 152.505 90.4421 151.134L89.3979 143.202C80.0236 144.436 70.498 143.812 61.365 141.365L59.2945 149.092ZM90.4421 151.134C100.858 149.762 110.902 146.353 120 141.1L116 134.172C107.812 138.899 98.7722 141.968 89.3979 143.202L90.4421 151.134ZM78.2448 26.3001C103.638 25.5063 124.866 45.4476 125.66 70.8403L133.656 70.5904C132.724 40.7816 107.804 17.3721 77.9949 18.304L78.2448 26.3001ZM81.1193 118.255C55.7266 119.049 34.4983 99.1075 33.7045 73.7148L25.7084 73.9648C26.6402 103.774 51.5605 127.183 81.3693 126.251L81.1193 118.255ZM103.213 111.814C96.7327 115.68 89.2082 118.002 81.1193 118.255L81.3693 126.251C90.85 125.955 99.6945 123.228 107.311 118.685L103.213 111.814ZM124.653 110.641L105.137 111.251L105.387 119.247L124.903 118.637L124.653 110.641ZM120.17 95.2488L120.78 114.764L128.776 114.514L128.166 94.9989L120.17 95.2488ZM125.66 70.8403C125.912 78.9292 124.064 86.5841 120.611 93.2933L127.724 96.9545C131.783 89.0686 133.952 80.0711 133.656 70.5904L125.66 70.8403ZM58.5798 26.7171L45.4641 4L38.5359 8L51.6516 30.7171L58.5798 26.7171ZM33.7045 73.7148C33.1516 56.0252 42.6603 40.3498 57.0836 32.1996L53.1479 25.2347C36.2377 34.7902 25.0589 53.1865 25.7084 73.9648L33.7045 73.7148ZM57.0836 32.1996C63.3486 28.6594 70.5403 26.5409 78.2448 26.3001L77.9949 18.304C68.9658 18.5862 60.513 21.0729 53.1479 25.2347L57.0836 32.1996ZM101.786 117.228L114.523 139.614L121.477 135.658L108.739 113.271L101.786 117.228Z" fill="black"/>
</svg>
