<svg width="134" height="152" viewBox="0 0 134 152" fill="none" xmlns="http://www.w3.org/2000/svg">
<path d="M42 6C33.3567 10.9902 25.7809 17.634 19.7051 25.5521C13.6294 33.4701 9.17277 42.5073 6.58964 52.1477C4.00651 61.7881 3.34748 71.8428 4.65019 81.7379C5.95291 91.633 9.19184 101.175 14.1821 109.818C19.1723 118.461 25.8161 126.037 33.7341 132.113C41.6522 138.189 50.6894 142.645 60.3298 145.228C69.9701 147.811 80.0249 148.47 89.92 147.168C99.8151 145.865 109.357 142.626 118 137.636L105.262 115.249C98.2136 119.454 90.0291 121.979 81.2443 122.253C53.6435 123.116 30.5693 101.441 29.7065 73.8398C29.1052 54.6058 39.449 37.57 55.1157 28.7171L42 6Z" fill="black"/>
<path d="M129.658 70.7154C128.795 43.1146 105.721 21.4392 78.1199 22.302C69.7531 22.5635 61.9308 24.8661 55.1157 28.7171C39.449 37.57 29.1052 54.6058 29.7065 73.8398C30.5693 101.441 53.6435 123.116 81.2443 122.253C90.0291 121.979 98.2136 119.454 105.262 115.249L124.778 114.639L124.168 95.1239C127.924 87.8264 129.932 79.5001 129.658 70.7154Z" fill="black"/>
<path d="M105.262 115.249C98.2136 119.454 90.0291 121.979 81.2443 122.253C53.6435 123.116 30.5693 101.441 29.7065 73.8398C29.1052 54.6058 39.449 37.57 55.1157 28.7171M105.262 115.249L124.778 114.639L124.168 95.1239C127.924 87.8264 129.932 79.5001 129.658 70.7154C128.795 43.1146 105.721 21.4392 78.1199 22.302C69.7531 22.5635 61.9308 24.8661 55.1157 28.7171M105.262 115.249L118 137.636C109.357 142.626 99.8151 145.865 89.92 147.168C80.0249 148.47 69.9701 147.811 60.3298 145.228C50.6894 142.645 41.6522 138.189 33.7341 132.113C25.8161 126.037 19.1723 118.461 14.1821 109.818C9.19184 101.175 5.95291 91.633 4.65019 81.7379C3.34748 71.8428 4.00651 61.7881 6.58964 52.1477C9.17277 42.5073 13.6294 33.4701 19.7051 25.5521C25.7809 17.634 33.3567 10.9902 42 6L55.1157 28.7171" stroke="white" stroke-width="8"/>
</svg>
