<svg width="48" height="48" viewBox="0 0 48 48" fill="none" xmlns="http://www.w3.org/2000/svg">
<path d="M16.718 4L18.017 3.25L17.267 1.95096L15.968 2.70096L16.718 4ZM38.1539 41.1281L38.9039 42.4272L40.1948 41.6819L39.4576 40.3863L38.1539 41.1281ZM26.9056 8.59801L26.9525 10.0973L26.9056 8.59801ZM41.442 22.2531L42.9412 22.2062L41.442 22.2531ZM13.2506 23.1343L11.7513 23.1812L13.2506 23.1343ZM27.7869 36.7894L27.74 35.2901L27.7869 36.7894ZM34.5612 34.814L34.5143 33.3147L34.1262 33.3268L33.7928 33.5257L34.5612 34.814ZM40.0655 34.6419L40.1124 36.1412L41.6117 36.0943L41.5648 34.595L40.0655 34.6419ZM39.8935 29.1375L38.5598 28.4511L38.3821 28.7963L38.3942 29.1844L39.8935 29.1375ZM20.4173 10.4074L21.1552 11.7133L20.4173 10.4074ZM15.968 2.70096C13.3595 4.20696 11.0732 6.21198 9.23963 8.60155L11.6197 10.4278C13.2134 8.35082 15.2007 6.60805 17.468 5.29904L15.968 2.70096ZM9.23963 8.60155C7.40605 10.9911 6.06108 13.7184 5.28152 16.6278L8.1793 17.4043C8.8569 14.8754 10.0259 12.5049 11.6197 10.4278L9.23963 8.60155ZM5.28152 16.6278C4.50196 19.5372 4.30308 22.5716 4.69622 25.5578L7.67056 25.1662C7.32883 22.5706 7.50171 19.9331 8.1793 17.4043L5.28152 16.6278ZM4.69622 25.5578C5.08936 28.544 6.06684 31.4236 7.57283 34.032L10.1709 32.532C8.8619 30.2648 8.01228 27.7619 7.67056 25.1662L4.69622 25.5578ZM7.57283 34.032C9.07883 36.6405 11.0839 38.9268 13.4734 40.7604L15.2997 38.3803C13.2227 36.7866 11.4799 34.7993 10.1709 32.532L7.57283 34.032ZM13.4734 40.7604C15.863 42.5939 18.5903 43.9389 21.4997 44.7185L22.2761 41.8207C19.7473 41.1431 17.3767 39.9741 15.2997 38.3803L13.4734 40.7604ZM21.4997 44.7185C24.409 45.498 27.4435 45.6969 30.4297 45.3038L30.0381 42.3294C27.4425 42.6712 24.805 42.4983 22.2761 41.8207L21.4997 44.7185ZM30.4297 45.3038C33.4159 44.9106 36.2954 43.9332 38.9039 42.4272L37.4039 39.8291C35.1366 41.1381 32.6337 41.9877 30.0381 42.3294L30.4297 45.3038ZM26.9525 10.0973C33.9093 9.87981 39.7252 15.3431 39.9427 22.3L42.9412 22.2062C42.672 13.5934 35.4716 6.82951 26.8588 7.09874L26.9525 10.0973ZM27.74 35.2901C20.7832 35.5076 14.9673 30.0443 14.7498 23.0875L11.7513 23.1812C12.0205 31.7941 19.2209 38.5579 27.8338 38.2887L27.74 35.2901ZM33.7928 33.5257C32.0178 34.5845 29.9568 35.2209 27.74 35.2901L27.8338 38.2887C30.5725 38.2031 33.1284 37.4152 35.3296 36.1022L33.7928 33.5257ZM40.0187 33.1426L34.5143 33.3147L34.6081 36.3132L40.1124 36.1412L40.0187 33.1426ZM38.3942 29.1844L38.5663 34.6888L41.5648 34.595L41.3927 29.0907L38.3942 29.1844ZM39.9427 22.3C40.012 24.5167 39.5056 26.6134 38.5598 28.4511L41.2272 29.824C42.4002 27.5451 43.0268 24.945 42.9412 22.2062L39.9427 22.3ZM21.7163 9.65741L18.017 3.25L15.4189 4.75L19.1182 11.1574L21.7163 9.65741ZM14.7498 23.0875C14.5983 18.2416 17.2027 13.9468 21.1552 11.7133L19.6793 9.10148C14.7942 11.8619 11.5636 17.1771 11.7513 23.1812L14.7498 23.0875ZM21.1552 11.7133C22.8712 10.7437 24.841 10.1633 26.9525 10.0973L26.8588 7.09874C24.2505 7.18027 21.8078 7.89875 19.6793 9.10148L21.1552 11.7133ZM33.2575 35.5558L36.8502 41.8699L39.4576 40.3863L35.8649 34.0722L33.2575 35.5558Z" fill="white"/>
</svg>
